arnold_states
version=1
nRows=10
nColumns=23
inDegrees=yes

# SIMM Motion File Header:
name arnold_states
datacolumns 23
datarows 10
otherdata 1
range 0.000000 0.500000
endheader
time	/jointset/ground_pelvis/pelvis_tilt/value	/jointset/ground_pelvis/pelvis_tilt/speed	/jointset/ground_pelvis/pelvis_list/value	/jointset/ground_pelvis/pelvis_list/speed	/jointset/ground_pelvis/pelvis_rotation/value	/jointset/ground_pelvis/pelvis_rotation/speed	/jointset/ground_pelvis/pelvis_tx/value	/jointset/ground_pelvis/pelvis_tx/speed	/jointset/ground_pelvis/pelvis_ty/value	/jointset/ground_pelvis/pelvis_ty/speed	/jointset/ground_pelvis/pelvis_tz/value	/jointset/ground_pelvis/pelvis_tz/speed	/jointset/hip_r/hip_flexion_r/value	/jointset/hip_r/hip_flexion_r/speed	/jointset/hip_r/hip_adduction_r/value	/jointset/hip_r/hip_adduction_r/speed	/jointset/hip_r/hip_rotation_r/value	/jointset/hip_r/hip_rotation_r/speed	/jointset/walker_knee_r/knee_angle_r/value	/jointset/walker_knee_r/knee_angle_r/speed	/jointset/patellofemoral_r/knee_angle_r_beta/value	/jointset/patellofemoral_r/knee_angle_r_beta/speed
      0.00000000	      0.00000000	      0.00000000	      0.00000000	      0.00000000	      0.00000000	      0.00000000	      0.00000000	      0.00000000	      1.00000000	      0.00000000	      0.00000000	      0.00000000	     90.00000000	      0.00000000	     -0.00000007	      0.00000000	      0.00000000	      0.00000000	     90.00021046	      0.00000000	      1.57080000	      0.00000000
      0.01000000	     -0.00000000	     -0.00000000	     -0.00000000	     -0.00000000	     -0.00000000	     -0.00000000	      0.00000000	      0.00000000	      1.00000000	      0.00000000	     -0.00000000	     -0.00000000	     90.00000000	      0.00000000	     -0.00000007	      0.00000000	      0.00000000	      0.00000000	     89.97835434	     -4.37072524	      1.57041854	     -0.07628355
      0.06000000	      0.00000000	      0.00000000	      0.00000000	      0.00000000	     -0.00000000	     -0.00000000	      0.00000000	      0.00000000	      1.00000000	      0.00000000	     -0.00000000	     -0.00000000	     90.00000000	      0.00000000	     -0.00000007	      0.00000000	      0.00000000	      0.00000000	     89.21652711	    -26.01540624	      1.55712215	     -0.45405450
      0.14934600	      0.00000000	      0.00000000	      0.00000000	      0.00000000	     -0.00000000	     -0.00000000	      0.00000000	      0.00000000	      1.00000000	      0.00000000	      0.00000000	      0.00000000	     90.00000000	     -0.00000000	     -0.00000007	      0.00000000	      0.00000000	      0.00000000	     85.24801686	    -62.00389458	      1.48785858	     -1.08217211
      0.23869200	      0.00000000	      0.00000000	      0.00000000	      0.00000000	     -0.00000000	     -0.00000000	      0.00000000	      0.00000000	      1.00000000	      0.00000000	      0.00000000	      0.00000000	     90.00000000	      0.00000000	     -0.00000007	      0.00000000	      0.00000000	      0.00000000	     78.33992337	    -91.20972937	      1.36728960	     -1.59191009
      0.30642844	      0.00000000	     -0.00000000	      0.00000000	      0.00000000	     -0.00000000	     -0.00000000	      0.00000000	      0.00000000	      1.00000000	     -0.00000000	      0.00000000	      0.00000000	     90.00000000	      0.00000000	     -0.00000007	      0.00000000	      0.00000000	      0.00000000	     71.59827325	   -106.76436124	      1.24962561	     -1.86338963
      0.36083440	      0.00000000	      0.00000000	      0.00000000	      0.00000000	     -0.00000000	     -0.00000000	      0.00000000	      0.00000000	      1.00000000	     -0.00000000	      0.00000000	      0.00000000	     90.00000000	     -0.00000000	     -0.00000007	      0.00000000	      0.00000000	      0.00000000	     65.56436631	   -114.29098625	      1.14431406	     -1.99475402
      0.41524037	      0.00000000	      0.00000000	      0.00000000	      0.00000000	     -0.00000000	     -0.00000000	      0.00000000	      0.00000000	      1.00000000	      0.00000000	      0.00000000	      0.00000000	     90.00000000	     -0.00000000	     -0.00000007	      0.00000000	      0.00000000	      0.00000000	     59.24074936	   -117.49753239	      1.03394613	     -2.05071880
      0.48849107	      0.00000000	     -0.00000000	      0.00000000	      0.00000000	     -0.00000000	     -0.00000000	      0.00000000	      0.00000000	      1.00000000	      0.00000000	      0.00000000	      0.00000000	     90.00000000	     -0.00000000	     -0.00000007	      0.00000000	      0.00000000	      0.00000000	     50.66885606	   -115.10855704	      0.88433837	     -2.00902332
      0.50000000	      0.00000000	     -0.00000000	      0.00000000	      0.00000000	     -0.00000000	     -0.00000000	      0.00000000	      0.00000000	      1.00000000	      0.00000000	      0.00000000	      0.00000000	     90.00000000	     -0.00000000	     -0.00000007	      0.00000000	      0.00000000	      0.00000000	     49.35082417	   -113.89557625	      0.86133437	     -1.98785281
